<svg width="838" height="139" viewBox="0 0 838 139" fill="none" xmlns="http://www.w3.org/2000/svg">
<path d="M31.6893 34.9192H0V134.504H32.4483V82.7715C32.4483 63.9262 47.0595 57.8292 59.0142 57.8292C72.6766 57.8292 81.5952 63.372 81.5952 77.4136V134.504H114.044V82.7715C114.044 63.9262 128.655 57.8292 140.799 57.8292C154.462 57.8292 163.38 63.372 163.38 77.4136V134.504H195.828V69.2842C195.828 43.6029 177.043 32.5174 153.892 32.5174C136.814 32.5174 120.116 36.9516 110.059 48.2218C103.038 36.7668 89.3752 32.5174 72.8664 32.5174C57.4961 32.5174 41.7464 36.9516 32.6381 48.037H31.6893V34.9192Z" fill="white"/>
<path d="M208.056 20.8776H241.263V0H208.056V20.8776ZM208.435 134.504H240.884V34.9192H208.435V134.504Z" fill="white"/>
<path d="M285.118 34.9192H253.428V134.504H285.877V82.7715C285.877 63.9262 300.488 57.8292 312.443 57.8292C326.105 57.8292 335.023 63.372 335.023 77.4136V134.504H367.472V82.7715C367.472 63.9262 382.083 57.8292 394.227 57.8292C407.89 57.8292 416.808 63.372 416.808 77.4136V134.504H449.257V69.2842C449.257 43.6029 430.471 32.5174 407.321 32.5174C390.243 32.5174 373.544 36.9516 363.487 48.2218C356.466 36.7668 342.803 32.5174 326.295 32.5174C310.924 32.5174 295.175 36.9516 286.066 48.037H285.118V34.9192Z" fill="white"/>
<path d="M522.396 31.4088C479.891 31.4088 457.12 51.1779 457.12 84.8039C457.12 118.43 479.891 138.199 522.396 138.199C564.901 138.199 587.672 118.43 587.672 84.8039C587.672 51.1779 564.901 31.4088 522.396 31.4088ZM522.396 114.365C501.902 114.365 490.707 103.834 490.707 84.8039C490.707 65.7738 501.902 55.2426 522.396 55.2426C542.89 55.2426 554.085 65.7738 554.085 84.8039C554.085 103.834 542.89 114.365 522.396 114.365Z" fill="white"/>
<path d="M674.179 64.6653H708.335C707.386 39.7229 681.01 31.4088 648.182 31.4088C616.113 31.4088 591.824 39.3534 591.824 63.0024C591.824 83.5106 606.246 89.9771 628.068 92.7484L663.173 97.1826C672.85 98.4759 676.835 100.508 676.835 106.421C676.835 112.887 669.435 117.136 651.218 117.136C634.33 117.136 623.893 113.626 623.134 101.986H588.219C589.358 131.178 615.544 138.199 650.649 138.199C688.98 138.199 712.32 130.624 712.32 104.758C712.32 82.5868 698.657 76.1203 676.456 73.7184L639.074 69.469C629.396 68.3604 626.17 66.3281 626.17 61.1549C626.17 55.7969 632.812 52.1017 647.992 52.1017C662.793 52.1017 673.42 55.2426 674.179 64.6653Z" fill="white"/>
<path d="M834.723 118.43V62.0786C834.723 38.2449 811.383 31.4088 778.555 31.4088C748.384 31.4088 722.008 39.7229 721.249 64.6653H755.405C756.164 56.3512 766.031 52.8408 778.745 52.8408C794.494 52.8408 800.946 56.5359 800.946 62.0786C800.946 67.2519 797.341 69.469 789.181 70.208L746.866 74.4574C728.27 76.305 714.417 84.2496 714.417 105.866C714.417 128.407 734.911 138.199 756.543 138.199C776.088 138.199 792.976 132.656 803.034 120.462V123.788C803.034 128.961 804.172 132.841 805.88 134.504H837.569V133.395C834.913 130.254 834.723 124.157 834.723 118.43ZM802.274 91.0856C802.274 111.224 780.642 117.876 766.221 117.876C755.594 117.876 748.004 114.735 748.004 105.682C748.004 97.3674 753.887 94.2265 762.615 93.118L792.787 88.8685C796.202 88.499 800.187 87.76 802.274 86.2819V91.0856Z" fill="white"/>
</svg>
